<svg width="395" height="109" viewBox="0 0 395 109" fill="none" xmlns="http://www.w3.org/2000/svg">
<path opacity="0.2" d="M138.994 91.719H155.709V74.8576C155.709 71.0863 155.614 71.1088 155.709 70.4961C155.985 68.3883 157.002 66.4524 158.573 65.0443C160.087 63.7908 161.981 63.1059 163.936 63.1053C165.966 63.048 167.946 63.7436 169.507 65.0618C171.067 66.3799 172.1 68.2302 172.412 70.2657C172.49 70.7547 172.412 70.676 172.412 74.5148V91.7471H189.177C189.133 84.2831 189.122 78.6795 189.122 74.8576V57.9963C189.094 54.9163 188.978 40.9045 179.565 31.6363C177.526 29.6355 172.014 24.2117 163.886 24.2174C155.614 24.2174 150.035 29.8378 148.307 31.5633C139.93 39.994 139.293 52.2353 138.999 57.9794C138.999 58.0356 138.999 63.6448 138.999 74.8689V83.4288C138.999 85.0475 138.994 90.089 138.994 91.719Z" stroke="black" stroke-width="4" stroke-miterlimit="10"/>
<path opacity="0.2" d="M206.745 91.7639V24.206C212.715 23.7155 218.657 25.4522 223.455 29.0902C227.427 32.2035 230.347 36.4934 231.809 41.3653C233.445 36.7282 236.342 32.6556 240.164 29.6185C244.951 25.9125 250.855 24.0002 256.873 24.206V91.7639H240.164V57.9794C239.158 59.8622 237.83 61.5483 236.242 62.9591C234.914 64.1348 233.42 65.1011 231.809 65.8255C228.284 64.1504 225.363 61.3992 223.455 57.9569V91.7358L206.745 91.7639Z" stroke="black" stroke-width="4" stroke-miterlimit="10"/>
<path opacity="0.2" d="M273.295 24.178V91.7246H323.417C323.417 91.7246 320.786 74.8632 306.713 74.8632H290.004V65.3141H306.713V51.3191H290.004V41.0618H308.198C309.051 41.0618 316.365 40.719 320.714 34.469C322.762 31.4576 323.718 27.8186 323.417 24.1724L273.295 24.178Z" stroke="black" stroke-width="4" stroke-miterlimit="10"/>
<path opacity="0.2" d="M73.4359 91.7303V24.178H89.7242H94.9985C96.7049 24.178 98.4113 24.178 100.118 24.178C101.479 24.1138 102.842 24.1627 104.195 24.3242C105.394 24.462 106.567 24.7704 107.68 25.2403C109.331 25.9731 110.787 27.0921 111.929 28.5058C113.231 30.1413 113.702 31.7038 114.273 33.6035C114.812 35.3992 115.136 37.2542 115.237 39.1285C115.406 42.3622 114.716 45.5826 113.241 48.4543C111.766 51.326 109.558 53.7438 106.849 55.4559C114.345 58.5865 116.916 62.6782 117.93 65.1231C119.658 69.2148 119.669 74.8465 119.675 77.4881C119.675 81.2088 119.22 83.991 120.689 87.4363C121.373 89.0378 122.338 90.5003 123.536 91.7528H106.849V84.1596C106.849 82.0575 106.849 79.9498 106.849 77.8478C106.849 75.0376 106.849 75.0376 106.849 74.8409C106.517 71.0695 103.785 68.3267 102.688 67.2307C98.0511 62.5826 91.7574 62.3803 90.1452 62.3747V91.7303H73.4359Z" stroke="black" stroke-width="4" stroke-miterlimit="10"/>
<path d="M135.658 87.4587H152.368V70.5973C152.368 66.826 152.279 66.8429 152.368 66.2359C152.65 64.1286 153.668 62.1941 155.238 60.784C156.751 59.5293 158.646 58.8443 160.601 58.845C162.63 58.7877 164.611 59.4833 166.172 60.8015C167.732 62.1196 168.765 63.9699 169.077 66.0054C169.155 66.4944 169.077 66.4157 169.077 70.2545V87.4868H185.842C185.798 80.0229 185.787 74.4192 185.787 70.6254V53.7641C185.759 50.6841 185.642 36.6666 176.224 27.4041C174.191 25.4032 168.678 19.9795 160.551 19.9795C152.279 19.9795 146.7 25.6 144.972 27.3311C136.589 35.7617 135.958 48.0031 135.664 53.7472C135.664 53.8034 135.664 59.4126 135.664 70.6367V79.1573C135.664 80.7928 135.658 85.8344 135.658 87.4587Z" stroke="black" stroke-width="4" stroke-miterlimit="10"/>
<path d="M202.496 87.47V19.912C208.465 19.4161 214.407 21.1534 219.2 24.7962C223.173 27.9095 226.092 32.1994 227.555 37.0713C229.191 32.4347 232.088 28.3623 235.909 25.3246C240.694 21.6143 246.599 19.7015 252.619 19.912V87.47H235.909V53.6854C234.061 57.1749 231.122 59.9426 227.555 61.5541C224.032 59.8742 221.112 57.1243 219.2 53.6854V87.4588L202.496 87.47Z" stroke="black" stroke-width="4" stroke-miterlimit="10"/>
<path d="M269.317 19.9121V87.4587H319.445C319.445 87.4587 316.808 70.5974 302.736 70.5974H286.032V61.0538H302.741V47.0589H286.032V36.8016H304.22C305.079 36.8016 312.387 36.4587 316.736 30.2088C318.782 27.1961 319.739 23.5586 319.445 19.9121H269.317Z" stroke="black" stroke-width="4" stroke-miterlimit="10"/>
<path opacity="0.2" d="M6.70917 5.10785V89.5776H23.3908L23.474 56.0797C25.0418 56.0797 30.7261 56.3945 35.1085 60.8065C39.6958 65.404 40.0282 71.6259 40.0947 72.6657C40.1556 73.7898 40.0393 73.9415 40.0393 79.2135C40.0393 81.5685 40.0393 83.575 40.0947 85.2386C40.2664 90.4319 40.3551 93.1072 41.2914 95.569C43.9175 102.538 52.5547 106.248 56.8041 106.445C57.4357 106.445 60.7875 106.529 64.8651 106.445L66.012 106.411C58.6988 99.0762 56.9426 93.4557 56.8041 89.5495C56.8041 89.3247 56.8041 85.6152 56.8041 78.2018V72.6601C56.7487 71.5809 55.9176 64.9544 49.9009 57.5579C45.8892 52.7019 40.8476 48.8285 35.1528 46.2271C40.0967 43.3083 44.4264 39.4316 47.8954 34.8176C56.865 22.8348 56.9758 9.65479 56.8096 5.13033H40.1002C40.1002 5.90033 40.1446 6.99632 40.1002 8.30027C39.9667 12.7395 39.1691 17.1324 37.7345 21.3285C34.2885 30.7034 25.4241 36.9252 23.7177 38.0943C23.6143 27.1082 23.5127 16.1202 23.413 5.13033L6.70917 5.10785Z" stroke="black" stroke-width="4" stroke-miterlimit="10"/>
<path d="M2 3V87.47H18.7094C18.7389 76.3002 18.7648 65.1342 18.7869 53.972C20.3548 53.972 26.0446 54.2867 30.4214 58.6988C35.0032 63.2963 35.3356 69.5182 35.4077 70.558C35.4686 71.6821 35.3578 71.8338 35.3578 77.1058C35.3578 79.4608 35.3578 81.4729 35.4077 83.131C35.5849 88.3243 35.6736 90.9996 36.6043 93.4614C39.2304 100.431 47.8732 104.14 52.117 104.337C52.7542 104.337 56.106 104.421 60.1836 104.337L61.3304 104.309C54.0118 96.9685 52.2555 91.3481 52.117 87.4475C52.117 87.2227 52.117 83.5132 52.117 76.0998C52.117 70.9008 52.117 70.6367 52.117 70.5692C52.0616 69.4901 51.2306 62.8636 45.2194 55.467C41.2066 50.6057 36.1632 46.7266 30.4658 44.1193C35.4082 41.2009 39.7376 37.3263 43.2083 32.7154C52.1835 20.7045 52.2888 7.54696 52.1392 3.02248H35.4298C35.4298 3.79249 35.4797 4.88848 35.4298 6.19804C35.295 10.6459 34.4917 15.0469 33.0475 19.2488C29.5793 28.5731 20.7205 34.8174 19.0085 35.9865L18.7094 3.02248L2 3Z" stroke="black" stroke-width="4" stroke-miterlimit="10"/>
<path d="M68.8319 87.6385V20.0807H85.1202H90.3945C92.1009 20.0807 93.8073 20.0807 95.5137 20.0807C96.8746 20.0194 98.2381 20.0683 99.5913 20.2268C100.79 20.3646 101.963 20.673 103.076 21.1429C104.728 21.8771 106.184 22.9981 107.326 24.414C108.627 26.0496 109.098 27.6065 109.669 29.5062C110.208 31.3019 110.531 33.1569 110.633 35.0311C110.801 38.2655 110.111 41.4864 108.636 44.3588C107.161 47.2313 104.954 49.6502 102.245 51.3641C109.741 54.4947 112.312 58.5864 113.326 61.0313C115.054 65.123 115.065 70.7547 115.071 73.3963C115.071 77.1227 114.616 79.8992 116.085 83.3501C116.772 84.9499 117.737 86.4118 118.932 87.6666H102.245V80.0678C102.245 77.9601 102.245 75.8581 102.245 73.7504C102.245 70.9402 102.245 70.9402 102.245 70.7491C101.913 66.9777 99.1814 64.235 98.0844 63.1333C93.4472 58.4852 87.1535 58.2829 85.5413 58.2773V87.6385H68.8319Z" stroke="black" stroke-width="4" stroke-miterlimit="10"/>
<path d="M85.5414 30.3436V44.5015C85.7575 44.5015 90.0678 44.9736 92.5055 41.6913C93.4923 40.3089 93.9795 38.6237 93.885 36.9195C93.8453 35.4429 93.3427 34.0175 92.4501 32.8503C90.0068 29.6973 85.7575 30.3099 85.5414 30.3436Z" stroke="black" stroke-width="4" stroke-miterlimit="10"/>
<path opacity="0.2" d="M86.799 34.2836V48.4472C87.0206 48.4472 91.3254 48.9137 93.7687 45.6369C94.7559 44.2547 95.2431 42.5694 95.1482 40.8652C95.103 39.3806 94.5926 37.9493 93.6911 36.7791C91.27 33.6597 87.0428 34.2499 86.799 34.2836Z" stroke="black" stroke-width="4" stroke-miterlimit="10"/>
<path opacity="0.2" d="M339.894 91.7302V24.1779H356.182H361.462C363.169 24.1779 364.869 24.1779 366.576 24.1779C367.937 24.1135 369.3 24.1624 370.653 24.3241C371.852 24.4613 373.025 24.7697 374.138 25.2402C375.791 25.9696 377.248 27.0892 378.388 28.5057C379.695 30.1412 380.161 31.7037 380.731 33.6034C381.272 35.3988 381.598 37.2538 381.701 39.1283C381.869 42.3621 381.18 45.5825 379.705 48.4542C378.229 51.3258 376.022 53.7437 373.313 55.4558C380.803 58.5864 383.379 62.6781 384.393 65.123C386.122 69.2146 386.138 74.8463 386.138 77.488C386.138 81.2087 385.69 83.9908 387.152 87.4362C387.839 89.0366 388.803 90.4987 390 91.7527H373.313V84.1594C373.313 82.0574 373.313 79.9497 373.313 77.8477C373.313 75.0374 373.313 75.0374 373.313 74.8407C372.98 71.0694 370.243 68.3266 369.147 67.2306C364.515 62.5825 358.216 62.3802 356.603 62.3745V91.7302H339.894Z" stroke="black" stroke-width="4" stroke-miterlimit="10"/>
<path d="M336.154 87.4363V19.884H352.42H357.7C359.407 19.884 361.108 19.884 362.814 19.884C364.175 19.8196 365.539 19.8685 366.892 20.0302C368.09 20.1674 369.263 20.4758 370.376 20.9463C372.029 21.6757 373.486 22.7953 374.626 24.2118C375.933 25.8473 376.399 27.4098 376.969 29.3095C377.51 31.1049 377.836 32.9599 377.939 34.8344C378.111 38.0645 377.428 41.2825 375.961 44.1546C374.494 47.0266 372.296 49.448 369.595 51.1675C377.086 54.2924 379.662 58.3841 380.676 60.829C382.404 64.9207 382.421 70.5524 382.421 73.194C382.421 76.9148 381.972 79.6969 383.435 83.1422C384.121 84.7426 385.086 86.2047 386.282 87.4587H369.595V79.8711C369.595 77.7635 369.595 75.6614 369.595 73.5537C369.595 70.7435 369.595 70.7435 369.595 70.5468C369.263 66.7755 366.526 64.0383 365.429 62.9367C360.797 58.2886 354.498 58.0863 352.886 58.0806V87.4363H336.154Z" stroke="black" stroke-width="4" stroke-miterlimit="10"/>
<path d="M352.864 30.147V44.3105C353.085 44.3386 357.39 44.7826 359.828 41.5002C360.82 40.1205 361.308 38.4334 361.207 36.7285C361.171 35.2503 360.671 33.8225 359.778 32.6537C357.329 29.5231 353.08 30.1132 352.864 30.147Z" stroke="black" stroke-width="4" stroke-miterlimit="10"/>
<path opacity="0.2" d="M355.612 34.2836V48.4472C355.828 48.4472 360.138 48.9137 362.576 45.6369C363.568 44.2574 364.056 42.5701 363.955 40.8652C363.916 39.3894 363.415 37.9645 362.526 36.796C360.077 33.6597 355.828 34.2499 355.612 34.2836Z" stroke="black" stroke-width="4" stroke-miterlimit="10"/>
<path d="M153.06 49.2396L166.911 48.9979C166.911 48.672 167.26 42.1635 163.969 38.5327C163.433 37.8857 162.761 37.3695 162.001 37.0227C161.241 36.6759 160.415 36.5073 159.582 36.5294C158.749 36.5515 157.932 36.7639 157.191 37.1506C156.451 37.5373 155.806 38.0885 155.304 38.7631C152.335 42.512 153.022 48.9136 153.06 49.2396Z" stroke="black" stroke-width="4" stroke-miterlimit="10"/>
<path opacity="0.2" d="M156.124 51.0549L170.002 50.8189C170.002 50.4929 170.351 44.1137 167.066 40.5616C166.487 39.8825 165.758 39.3512 164.939 39.0105C164.12 38.6697 163.234 38.5291 162.351 38.6C161.578 38.6631 160.826 38.8903 160.144 39.2669C159.463 39.6436 158.867 40.1612 158.396 40.7864C155.404 44.4622 156.085 50.7346 156.124 51.0549Z" stroke="black" stroke-width="4" stroke-miterlimit="10"/>
</svg>
