<svg width="1119" height="305" viewBox="0 0 1119 305" fill="none" xmlns="http://www.w3.org/2000/svg">
<path opacity="0.2" d="M394.129 257.357H441.486V209.586C441.486 198.901 441.219 198.965 441.486 197.229C442.269 191.257 445.151 185.772 449.601 181.783C453.891 178.232 459.258 176.291 464.795 176.289C470.546 176.127 476.158 178.098 480.579 181.832C485 185.567 487.927 190.809 488.811 196.576C489.031 197.962 488.811 197.739 488.811 208.615V257.437H536.309C536.183 236.29 536.152 220.414 536.152 209.586V161.814C536.073 153.088 535.744 113.39 509.075 87.1317C503.299 81.4628 487.681 66.0963 464.654 66.1123C441.219 66.1123 425.412 82.0361 420.515 86.9247C396.782 110.81 394.977 145.493 394.145 161.767C394.145 161.926 394.145 177.818 394.145 209.618V233.87C394.145 238.456 394.129 252.74 394.129 257.357Z" stroke="#DEBB00" stroke-width="11" stroke-miterlimit="10"/>
<path opacity="0.2" d="M586.083 257.485V66.0806C602.997 64.6907 619.831 69.6111 633.423 79.9184C644.679 88.7389 652.951 100.893 657.094 114.696C661.729 101.558 669.936 90.0199 680.764 81.4152C694.328 70.9151 711.053 65.4973 728.105 66.0806V257.485H680.764V161.767C677.914 167.101 674.151 171.878 669.651 175.875C665.891 179.206 661.658 181.944 657.094 183.996C647.106 179.251 638.83 171.456 633.423 161.703V257.405L586.083 257.485Z" stroke="#DEBB00" stroke-width="11" stroke-miterlimit="10"/>
<path opacity="0.2" d="M774.629 66.0009V257.374H916.636C916.636 257.374 909.18 209.602 869.311 209.602H821.97V182.547H869.311V142.897H821.97V113.836H873.518C875.935 113.836 896.655 112.865 908.976 95.1574C914.78 86.6254 917.487 76.3153 916.636 65.9849L774.629 66.0009Z" stroke="#DEBB00" stroke-width="11" stroke-miterlimit="10"/>
<path opacity="0.2" d="M208.391 257.39V66.0012H254.539H269.483C274.317 66.0012 279.152 66.0012 283.986 66.0012C287.842 65.8194 291.706 65.9578 295.539 66.4153C298.934 66.8057 302.257 67.6795 305.412 69.0108C310.089 71.0868 314.215 74.2573 317.451 78.2626C321.14 82.8964 322.474 87.3232 324.091 92.7055C325.618 97.7929 326.535 103.048 326.822 108.359C327.3 117.52 325.347 126.644 321.167 134.78C316.987 142.916 310.734 149.767 303.057 154.617C324.295 163.487 331.578 175.079 334.451 182.006C339.348 193.599 339.379 209.554 339.395 217.039C339.395 227.58 338.108 235.462 342.267 245.224C344.207 249.761 346.94 253.905 350.336 257.453H303.057V235.94C303.057 229.985 303.057 224.013 303.057 218.058C303.057 210.096 303.057 210.096 303.057 209.538C302.116 198.854 294.377 191.083 291.269 187.978C278.131 174.809 260.3 174.235 255.732 174.219V257.39H208.391Z" stroke="#DEBB00" stroke-width="11" stroke-miterlimit="10"/>
<path d="M384.68 245.287H432.021V197.516C432.021 186.831 431.769 186.879 432.021 185.159C432.82 179.189 435.705 173.708 440.151 169.713C444.44 166.158 449.808 164.217 455.346 164.219C461.097 164.057 466.708 166.028 471.129 169.762C475.551 173.497 478.477 178.739 479.361 184.506C479.581 185.891 479.361 185.668 479.361 196.544V245.367H526.859C526.734 224.22 526.702 208.344 526.702 197.595V149.824C526.624 141.098 526.294 101.384 499.61 75.1415C493.849 69.4726 478.231 54.1061 455.204 54.1061C431.769 54.1061 415.963 70.0299 411.066 74.9344C387.317 98.8201 385.527 133.502 384.695 149.776C384.695 149.935 384.695 165.827 384.695 197.627V221.768C384.695 226.401 384.68 240.685 384.68 245.287Z" stroke="#DEBB00" stroke-width="11" stroke-miterlimit="10"/>
<path d="M574.043 245.319V53.9147C590.955 52.5095 607.789 57.4316 621.368 67.7525C632.624 76.5731 640.896 88.7271 645.039 102.53C649.677 89.3936 657.883 77.8558 668.709 69.2493C682.267 58.7374 698.997 53.3182 716.05 53.9147V245.319H668.709V149.601C663.472 159.487 655.146 167.329 645.039 171.894C635.06 167.135 626.787 159.344 621.368 149.601V245.287L574.043 245.319Z" stroke="#DEBB00" stroke-width="11" stroke-miterlimit="10"/>
<path d="M763.359 53.915V245.287H905.382C905.382 245.287 897.91 197.516 858.041 197.516H810.716V170.477H858.057V130.827H810.716V101.766H862.248C864.681 101.766 885.385 100.795 897.706 83.0874C903.504 74.5519 906.215 64.246 905.382 53.915H763.359Z" stroke="#DEBB00" stroke-width="11" stroke-miterlimit="10"/>
<path opacity="0.2" d="M19.3421 11.9713V251.291H66.6044L66.8399 156.385C71.282 156.385 87.3867 157.276 99.8027 169.776C112.799 182.802 113.741 200.43 113.93 203.376C114.102 206.561 113.773 206.991 113.773 221.927C113.773 228.599 113.773 234.284 113.93 238.997C114.416 253.711 114.667 261.291 117.32 268.265C124.76 288.011 149.231 298.521 161.27 299.078C163.06 299.078 172.556 299.317 184.109 299.078L187.358 298.982C166.639 278.202 161.663 262.278 161.27 251.211C161.27 250.574 161.27 240.064 161.27 219.061V203.36C161.113 200.302 158.759 181.528 141.713 160.573C130.347 146.815 116.063 135.84 99.9283 128.47C113.935 120.201 126.202 109.217 136.03 96.1447C161.443 62.1951 161.757 24.8537 161.286 12.035H113.945C113.945 14.2166 114.071 17.3218 113.945 21.0161C113.567 33.5933 111.307 46.0392 107.243 57.9275C97.4796 84.4885 72.3651 102.116 67.5305 105.428C67.2375 74.3025 66.9498 43.1714 66.6672 12.035L19.3421 11.9713Z" stroke="#DEBB00" stroke-width="11" stroke-miterlimit="10"/>
<path d="M6 6V245.319H53.3409C53.4246 213.673 53.4978 182.038 53.5606 150.413C58.0027 150.413 74.1231 151.305 86.5234 163.805C99.5045 176.831 100.446 194.459 100.65 197.405C100.823 200.589 100.509 201.019 100.509 215.956C100.509 222.628 100.509 228.329 100.65 233.026C101.153 247.74 101.404 255.32 104.041 262.294C111.481 282.04 135.968 292.55 147.991 293.107C149.796 293.107 159.293 293.346 170.845 293.107L174.095 293.027C153.359 272.231 148.384 256.307 147.991 245.256C147.991 244.619 147.991 234.109 147.991 213.106C147.991 198.376 147.991 197.628 147.991 197.436C147.834 194.379 145.48 175.605 128.449 154.649C117.08 140.876 102.791 129.886 86.649 122.499C100.652 114.23 112.918 103.253 122.751 90.1894C148.18 56.1601 148.478 18.8824 148.054 6.0637H100.713C100.713 8.24526 100.854 11.3504 100.713 15.0607C100.331 27.6624 98.0551 40.1311 93.9636 52.0358C84.1375 78.4535 59.0387 96.1449 54.1885 99.457L53.3409 6.0637L6 6Z" stroke="#DEBB00" stroke-width="11" stroke-miterlimit="10"/>
<path d="M195.348 245.797V54.3925H241.495H256.439C261.273 54.3925 266.108 54.3925 270.942 54.3925C274.798 54.219 278.661 54.3575 282.495 54.8065C285.89 55.197 289.214 56.0707 292.368 57.4021C297.047 59.4822 301.173 62.6583 304.407 66.6698C308.096 71.3036 309.43 75.7145 311.047 81.0968C312.573 86.1846 313.49 91.44 313.778 96.7499C314.254 105.914 312.3 115.039 308.121 123.177C303.941 131.315 297.689 138.169 290.014 143.025C311.251 151.894 318.534 163.487 321.407 170.414C326.304 182.006 326.335 197.962 326.351 205.446C326.351 216.004 325.064 223.87 329.224 233.647C331.172 238.18 333.904 242.322 337.292 245.877H290.014V224.348C290.014 218.376 290.014 212.421 290.014 206.449C290.014 198.487 290.014 198.487 290.014 197.946C289.072 187.261 281.333 179.49 278.225 176.369C265.087 163.2 247.256 162.627 242.688 162.611V245.797H195.348Z" stroke="#DEBB00" stroke-width="11" stroke-miterlimit="10"/>
<path d="M242.689 83.4697V123.581C243.301 123.581 255.513 124.919 262.419 115.62C265.215 111.703 266.595 106.929 266.328 102.1C266.215 97.9167 264.791 93.8783 262.262 90.5716C255.34 81.6384 243.301 83.3741 242.689 83.4697Z" stroke="#DEBB00" stroke-width="11" stroke-miterlimit="10"/>
<path opacity="0.2" d="M246.252 94.6319V134.76C246.88 134.76 259.076 136.082 265.998 126.798C268.795 122.882 270.176 118.107 269.907 113.279C269.778 109.073 268.332 105.018 265.778 101.702C258.919 92.8644 246.942 94.5364 246.252 94.6319Z" stroke="#DEBB00" stroke-width="11" stroke-miterlimit="10"/>
<path opacity="0.2" d="M963.318 257.39V66.0009H1009.47H1024.42C1029.26 66.0009 1034.08 66.0009 1038.91 66.0009C1042.77 65.8184 1046.63 65.9569 1050.47 66.4149C1053.86 66.8036 1057.18 67.6775 1060.34 69.0105C1065.02 71.0769 1069.15 74.249 1072.38 78.2622C1076.08 82.8961 1077.4 87.3229 1079.02 92.7051C1080.55 97.7917 1081.47 103.047 1081.76 108.358C1082.24 117.52 1080.29 126.644 1076.11 134.78C1071.93 142.916 1065.68 149.766 1058 154.617C1079.22 163.487 1086.52 175.079 1089.39 182.006C1094.29 193.599 1094.34 209.554 1094.34 217.039C1094.34 227.58 1093.07 235.462 1097.21 245.224C1099.15 249.758 1101.89 253.9 1105.28 257.453H1058V235.94C1058 229.985 1058 224.013 1058 218.058C1058 210.096 1058 210.096 1058 209.538C1057.06 198.854 1049.3 191.083 1046.2 187.978C1033.07 174.808 1015.23 174.235 1010.66 174.219V257.39H963.318Z" stroke="#DEBB00" stroke-width="11" stroke-miterlimit="10"/>
<path d="M952.723 245.224V53.8352H998.808H1013.77C1018.6 53.8352 1023.42 53.8352 1028.25 53.8352C1032.11 53.6528 1035.97 53.7912 1039.81 54.2492C1043.2 54.638 1046.53 55.5118 1049.68 56.8448C1054.36 58.9113 1058.49 62.0833 1061.72 66.0965C1065.42 70.7304 1066.74 75.1572 1068.36 80.5395C1069.89 85.626 1070.82 90.8817 1071.11 96.1926C1071.6 105.344 1069.66 114.461 1065.5 122.598C1061.35 130.735 1055.12 137.596 1047.47 142.467C1068.69 151.321 1075.99 162.913 1078.86 169.84C1083.76 181.433 1083.81 197.388 1083.81 204.873C1083.81 215.414 1082.53 223.297 1086.68 233.058C1088.62 237.592 1091.36 241.734 1094.75 245.287H1047.47V223.79C1047.47 217.819 1047.47 211.863 1047.47 205.892C1047.47 197.93 1047.47 197.93 1047.47 197.373C1046.53 186.688 1038.77 178.933 1035.66 175.812C1022.54 162.643 1004.69 162.069 1000.13 162.054V245.224H952.723Z" stroke="#DEBB00" stroke-width="11" stroke-miterlimit="10"/>
<path d="M1000.06 82.912V123.04C1000.69 123.12 1012.89 124.378 1019.79 115.078C1022.61 111.169 1023.99 106.389 1023.7 101.559C1023.6 97.3708 1022.18 93.3255 1019.65 90.0141C1012.72 81.1445 1000.68 82.8165 1000.06 82.912Z" stroke="#DEBB00" stroke-width="11" stroke-miterlimit="10"/>
<path opacity="0.2" d="M1007.85 94.6321V134.76C1008.46 134.76 1020.67 136.081 1027.58 126.798C1030.39 122.889 1031.77 118.109 1031.49 113.279C1031.38 109.098 1029.96 105.061 1027.44 101.75C1020.5 92.8646 1008.46 94.5366 1007.85 94.6321Z" stroke="#DEBB00" stroke-width="11" stroke-miterlimit="10"/>
<path d="M433.983 137.005L473.224 136.321C473.224 135.397 474.213 116.957 464.889 106.67C463.371 104.837 461.465 103.375 459.313 102.392C457.161 101.41 454.819 100.932 452.46 100.995C450.1 101.057 447.786 101.659 445.687 102.755C443.589 103.85 441.761 105.412 440.34 107.323C431.927 117.945 433.873 136.082 433.983 137.005Z" stroke="#DEBB00" stroke-width="11" stroke-miterlimit="10"/>
<path opacity="0.2" d="M442.663 142.149L481.983 141.48C481.983 140.556 482.971 122.483 473.663 112.419C472.022 110.495 469.958 108.99 467.638 108.024C465.317 107.059 462.806 106.66 460.306 106.861C458.114 107.04 455.984 107.684 454.053 108.751C452.123 109.818 450.435 111.285 449.098 113.056C440.622 123.47 442.553 141.241 442.663 142.149Z" stroke="#DEBB00" stroke-width="11" stroke-miterlimit="10"/>
</svg>
