<svg width="1117" height="307" viewBox="0 0 1117 307" fill="none" xmlns="http://www.w3.org/2000/svg">
<g filter="url(#filter0_d_9_31)">
<path opacity="0.2" d="M395.129 254.357H442.486V206.586C442.486 195.901 442.219 195.965 442.486 194.229C443.269 188.257 446.151 182.772 450.601 178.783C454.891 175.232 460.258 173.291 465.795 173.289C471.546 173.127 477.158 175.098 481.579 178.832C486 182.567 488.927 187.809 489.811 193.576C490.031 194.961 489.811 194.738 489.811 205.614V254.437H537.309C537.183 233.29 537.152 217.414 537.152 206.586V158.814C537.073 150.088 536.744 110.39 510.075 84.1317C504.299 78.4629 488.681 63.0964 465.654 63.1123C442.219 63.1123 426.412 79.0361 421.515 83.9247C397.782 107.81 395.977 142.492 395.145 158.767C395.145 158.926 395.145 174.818 395.145 206.618V230.87C395.145 235.456 395.129 249.739 395.129 254.357Z" stroke="white" stroke-width="5" stroke-miterlimit="10"/>
<path opacity="0.2" d="M587.083 254.485V63.0804C603.997 61.6906 620.831 66.611 634.423 76.9182C645.679 85.7388 653.951 97.8928 658.094 111.696C662.729 98.5581 670.936 87.0197 681.764 78.4151C695.328 67.915 712.053 62.4972 729.105 63.0804V254.485H681.764V158.767C678.914 164.101 675.151 168.878 670.651 172.875C666.891 176.206 662.658 178.944 658.094 180.996C648.106 176.25 639.83 168.456 634.423 158.703V254.405L587.083 254.485Z" stroke="white" stroke-width="5" stroke-miterlimit="10"/>
<path opacity="0.2" d="M775.629 63.0005V254.373H917.636C917.636 254.373 910.18 206.602 870.311 206.602H822.97V179.547H870.311V139.897H822.97V110.836H874.518C876.935 110.836 897.655 109.864 909.976 92.1571C915.78 83.6251 918.487 73.315 917.636 62.9846L775.629 63.0005Z" stroke="white" stroke-width="5" stroke-miterlimit="10"/>
<path opacity="0.2" d="M209.392 254.389V63.0011H255.539H270.483C275.317 63.0011 280.152 63.0011 284.986 63.0011C288.842 62.8192 292.706 62.9577 296.539 63.4151C299.934 63.8055 303.258 64.6793 306.412 66.0107C311.089 68.0867 315.215 71.2571 318.451 75.2624C322.14 79.8962 323.474 84.3231 325.091 89.7053C326.618 94.7927 327.535 100.048 327.822 105.358C328.3 114.52 326.347 123.644 322.167 131.78C317.988 139.916 311.734 146.766 304.058 151.617C325.295 160.487 332.578 172.079 335.451 179.006C340.348 190.599 340.379 206.554 340.395 214.038C340.395 224.58 339.108 232.462 343.268 242.224C345.207 246.761 347.94 250.904 351.336 254.453H304.058V232.94C304.058 226.985 304.058 221.013 304.058 215.058C304.058 207.096 304.058 207.096 304.058 206.538C303.116 195.853 295.377 188.083 292.269 184.978C279.131 171.809 261.3 171.235 256.732 171.219V254.389H209.392Z" stroke="white" stroke-width="5" stroke-miterlimit="10"/>
<path d="M385.68 242.287H433.021V194.515C433.021 183.831 432.769 183.878 433.021 182.159C433.82 176.188 436.705 170.708 441.151 166.713C445.44 163.158 450.808 161.217 456.346 161.219C462.097 161.057 467.708 163.027 472.129 166.762C476.551 170.497 479.477 175.739 480.361 181.506C480.581 182.891 480.361 182.668 480.361 193.544V242.366H527.859C527.734 221.22 527.702 205.344 527.702 194.595V146.824C527.624 138.098 527.294 98.3836 500.61 72.1413C494.849 66.4724 479.231 51.106 456.204 51.106C432.769 51.106 416.963 67.0297 412.066 71.9343C388.317 95.8199 386.527 130.502 385.695 146.776C385.695 146.935 385.695 162.827 385.695 194.627V218.767C385.695 223.401 385.68 237.685 385.68 242.287Z" stroke="white" stroke-width="5" stroke-miterlimit="10"/>
<path d="M575.043 242.319V50.9148C591.955 49.5096 608.789 54.4317 622.369 64.7526C633.624 73.5731 641.896 85.7271 646.039 99.5301C650.677 86.3936 658.883 74.8559 669.709 66.2494C683.267 55.7375 699.997 50.3184 717.05 50.9148V242.319H669.709V146.601C664.472 156.487 656.146 164.329 646.039 168.894C636.06 164.135 627.787 156.344 622.369 146.601V242.287L575.043 242.319Z" stroke="white" stroke-width="5" stroke-miterlimit="10"/>
<path d="M764.359 50.915V242.287H906.382C906.382 242.287 898.91 194.516 859.041 194.516H811.716V167.477H859.057V127.827H811.716V98.766H863.248C865.681 98.766 886.385 97.7947 898.706 80.0874C904.504 71.5519 907.215 61.2461 906.382 50.915H764.359Z" stroke="white" stroke-width="5" stroke-miterlimit="10"/>
<path opacity="0.2" d="M20.342 8.97144V248.291H67.6044L67.8399 153.385C72.282 153.385 88.3867 154.276 100.803 166.776C113.799 179.802 114.741 197.43 114.93 200.376C115.102 203.561 114.773 203.99 114.773 218.927C114.773 225.599 114.773 231.284 114.93 235.997C115.416 250.711 115.667 258.291 118.32 265.265C125.76 285.011 150.231 295.521 162.27 296.078C164.06 296.078 173.556 296.317 185.109 296.078L188.358 295.982C167.639 275.202 162.663 259.278 162.27 248.211C162.27 247.574 162.27 237.064 162.27 216.061V200.36C162.113 197.302 159.759 178.528 142.712 157.573C131.347 143.815 117.063 132.84 100.928 125.47C114.935 117.201 127.202 106.217 137.03 93.1448C162.443 59.1952 162.757 21.8538 162.286 9.03513H114.945C114.945 11.2167 115.071 14.3218 114.945 18.0162C114.567 30.5934 112.307 43.0392 108.243 54.9276C98.4796 81.4885 73.3651 99.1162 68.5305 102.428C68.2375 71.3026 67.9497 40.1715 67.6672 9.03513L20.342 8.97144Z" stroke="white" stroke-width="5" stroke-miterlimit="10"/>
<g filter="url(#filter1_d_9_31)">
<path d="M7 3V242.319H54.3409C54.4246 210.673 54.4978 179.038 54.5606 147.413C59.0027 147.413 75.1231 148.305 87.5234 160.805C100.504 173.831 101.446 191.459 101.65 194.404C101.823 197.589 101.509 198.019 101.509 212.956C101.509 219.628 101.509 225.329 101.65 230.026C102.153 244.74 102.404 252.319 105.041 259.294C112.481 279.04 136.968 289.549 148.991 290.107C150.796 290.107 160.293 290.346 171.845 290.107L175.095 290.027C154.359 269.231 149.384 253.307 148.991 242.256C148.991 241.619 148.991 231.109 148.991 210.105C148.991 195.376 148.991 194.627 148.991 194.436C148.834 191.379 146.48 172.605 129.449 151.649C118.08 137.876 103.791 126.886 87.649 119.499C101.652 111.23 113.918 100.253 123.751 87.1893C149.18 53.1601 149.478 15.8824 149.054 3.0637H101.713C101.713 5.24526 101.854 8.35041 101.713 12.0607C101.331 24.6623 99.0551 37.131 94.9636 49.0358C85.1375 75.4534 60.0387 93.1448 55.1885 96.457L54.3409 3.0637L7 3Z" stroke="white" stroke-width="5" stroke-miterlimit="10" shape-rendering="crispEdges"/>
</g>
<path d="M196.348 242.797V51.3925H242.496H257.439C262.273 51.3925 267.108 51.3925 271.942 51.3925C275.798 51.219 279.661 51.3574 283.495 51.8065C286.89 52.1969 290.214 53.0707 293.368 54.4021C298.047 56.4821 302.173 59.6582 305.407 63.6697C309.096 68.3036 310.43 72.7145 312.047 78.0967C313.573 83.1845 314.49 88.4399 314.778 93.7498C315.254 102.914 313.3 112.039 309.121 120.177C304.941 128.315 298.689 135.169 291.014 140.024C312.251 148.894 319.534 160.487 322.407 167.413C327.304 179.006 327.336 194.962 327.351 202.446C327.351 213.003 326.064 220.87 330.224 230.647C332.172 235.18 334.904 239.321 338.292 242.876H291.014V221.347C291.014 215.376 291.014 209.421 291.014 203.449C291.014 195.487 291.014 195.487 291.014 194.946C290.072 184.261 282.333 176.49 279.226 173.369C266.088 160.2 248.256 159.627 243.689 159.611V242.797H196.348Z" stroke="white" stroke-width="5" stroke-miterlimit="10"/>
<path d="M243.688 80.4695V120.581C244.301 120.581 256.513 121.919 263.419 112.619C266.215 108.703 267.595 103.928 267.328 99.1002C267.215 94.9165 265.791 90.8781 263.262 87.5714C256.34 78.6383 244.301 80.3739 243.688 80.4695Z" stroke="white" stroke-width="5" stroke-miterlimit="10"/>
<path opacity="0.2" d="M247.252 91.6319V131.76C247.88 131.76 260.076 133.082 266.998 123.798C269.795 119.882 271.176 115.107 270.906 110.279C270.778 106.073 269.332 102.018 266.778 98.7021C259.919 89.8644 247.942 91.5364 247.252 91.6319Z" stroke="white" stroke-width="5" stroke-miterlimit="10"/>
<path opacity="0.2" d="M964.318 254.389V63.0009H1010.47H1025.43C1030.26 63.0009 1035.08 63.0009 1039.91 63.0009C1043.77 62.8185 1047.63 62.9569 1051.47 63.4149C1054.86 63.8037 1058.18 64.6775 1061.34 66.0105C1066.02 68.077 1070.15 71.249 1073.38 75.2623C1077.08 79.8961 1078.4 84.3229 1080.02 89.7052C1081.55 94.7917 1082.47 100.047 1082.76 105.358C1083.24 114.52 1081.29 123.644 1077.11 131.78C1072.93 139.916 1066.68 146.766 1059 151.617C1080.22 160.487 1087.52 172.079 1090.39 179.006C1095.29 190.599 1095.34 206.554 1095.34 214.038C1095.34 224.58 1094.07 232.462 1098.21 242.224C1100.16 246.758 1102.89 250.9 1106.28 254.453H1059V232.94C1059 226.985 1059 221.013 1059 215.058C1059 207.096 1059 207.096 1059 206.538C1058.06 195.853 1050.3 188.083 1047.2 184.977C1034.07 171.808 1016.23 171.235 1011.66 171.219V254.389H964.318Z" stroke="white" stroke-width="5" stroke-miterlimit="10"/>
<path d="M953.723 242.223V50.8351H999.808H1014.77C1019.6 50.8351 1024.42 50.8351 1029.25 50.8351C1033.11 50.6527 1036.97 50.7912 1040.81 51.2492C1044.2 51.6379 1047.53 52.5118 1050.68 53.8447C1055.36 55.9112 1059.49 59.0833 1062.72 63.0965C1066.42 67.7303 1067.74 72.1571 1069.36 77.5394C1070.89 82.6259 1071.82 87.8816 1072.11 93.1925C1072.6 102.344 1070.66 111.461 1066.5 119.598C1062.35 127.735 1056.12 134.595 1048.47 139.467C1069.69 148.321 1076.99 159.913 1079.86 166.84C1084.76 178.433 1084.81 194.388 1084.81 201.872C1084.81 212.414 1083.53 220.296 1087.68 230.058C1089.62 234.592 1092.36 238.734 1095.75 242.287H1048.47V220.79C1048.47 214.819 1048.47 208.863 1048.47 202.892C1048.47 194.93 1048.47 194.93 1048.47 194.372C1047.53 183.687 1039.77 175.933 1036.66 172.812C1023.54 159.643 1005.69 159.069 1001.13 159.053V242.223H953.723Z" stroke="white" stroke-width="5" stroke-miterlimit="10"/>
<path d="M1001.06 79.9117V120.04C1001.69 120.12 1013.89 121.378 1020.79 112.078C1023.61 108.169 1024.99 103.389 1024.7 98.5586C1024.6 94.3706 1023.18 90.3252 1020.65 87.0137C1013.72 78.1441 1001.68 79.8161 1001.06 79.9117Z" stroke="white" stroke-width="5" stroke-miterlimit="10"/>
<path opacity="0.2" d="M1008.85 91.6322V131.759C1009.46 131.759 1021.67 133.081 1028.58 123.798C1031.39 119.889 1032.77 115.109 1032.49 110.279C1032.38 106.098 1030.96 102.061 1028.44 98.75C1021.5 89.8647 1009.46 91.5367 1008.85 91.6322Z" stroke="white" stroke-width="5" stroke-miterlimit="10"/>
<path d="M434.983 134.005L474.224 133.321C474.224 132.397 475.213 113.957 465.889 103.67C464.371 101.837 462.466 100.375 460.314 99.3921C458.162 98.4095 455.819 97.9317 453.46 97.9945C451.1 98.0572 448.786 98.6588 446.687 99.7545C444.589 100.85 442.761 102.412 441.34 104.323C432.927 114.944 434.873 133.082 434.983 134.005Z" stroke="white" stroke-width="5" stroke-miterlimit="10"/>
<path opacity="0.2" d="M443.663 139.149L482.983 138.48C482.983 137.556 483.972 119.483 474.664 109.419C473.022 107.495 470.958 105.989 468.638 105.024C466.317 104.059 463.806 103.66 461.306 103.861C459.114 104.04 456.984 104.684 455.053 105.751C453.123 106.818 451.435 108.284 450.098 110.056C441.622 120.47 443.553 138.241 443.663 139.149Z" stroke="white" stroke-width="5" stroke-miterlimit="10"/>
</g>
<defs>
<filter id="filter0_d_9_31" x="0.5" y="0.496582" width="1115.62" height="306.187" filterUnits="userSpaceOnUse" color-interpolation-filters="sRGB">
<feFlood flood-opacity="0" result="BackgroundImageFix"/>
<feColorMatrix in="SourceAlpha" type="matrix" values="0 0 0 0 0 0 0 0 0 0 0 0 0 0 0 0 0 0 127 0" result="hardAlpha"/>
<feOffset dy="4"/>
<feGaussianBlur stdDeviation="2"/>
<feComposite in2="hardAlpha" operator="out"/>
<feColorMatrix type="matrix" values="0 0 0 0 0 0 0 0 0 0 0 0 0 0 0 0 0 0 0.25 0"/>
<feBlend mode="normal" in2="BackgroundImageFix" result="effect1_dropShadow_9_31"/>
<feBlend mode="normal" in="SourceGraphic" in2="effect1_dropShadow_9_31" result="shape"/>
</filter>
<filter id="filter1_d_9_31" x="1.5" y="0.496582" width="184.475" height="300.216" filterUnits="userSpaceOnUse" color-interpolation-filters="sRGB">
<feFlood flood-opacity="0" result="BackgroundImageFix"/>
<feColorMatrix in="SourceAlpha" type="matrix" values="0 0 0 0 0 0 0 0 0 0 0 0 0 0 0 0 0 0 127 0" result="hardAlpha"/>
<feOffset dx="1" dy="4"/>
<feGaussianBlur stdDeviation="2"/>
<feComposite in2="hardAlpha" operator="out"/>
<feColorMatrix type="matrix" values="0 0 0 0 0 0 0 0 0 0 0 0 0 0 0 0 0 0 0.25 0"/>
<feBlend mode="normal" in2="BackgroundImageFix" result="effect1_dropShadow_9_31"/>
<feBlend mode="normal" in="SourceGraphic" in2="effect1_dropShadow_9_31" result="shape"/>
</filter>
</defs>
</svg>
